<?xml version="1.0" encoding="UTF-8"?>
<svg width="290px" height="58px" viewBox="0 0 290 58" version="1.1" xmlns="http://www.w3.org/2000/svg" xmlns:xlink="http://www.w3.org/1999/xlink">
    <!-- Generator: Sketch 51.2 (57519) - http://www.bohemiancoding.com/sketch -->
    <title>logo</title>
    <desc>Created with Sketch.</desc>
    <defs>
        <polygon id="path-1" points="0 58 289.878401 58 289.878401 0.0464 0 0.0464"></polygon>
        <linearGradient x1="39.9979888%" y1="50%" x2="99.998743%" y2="50%" id="linearGradient-3">
            <stop stop-color="#780096" offset="0%"></stop>
            <stop stop-color="#FF0082" offset="100%"></stop>
        </linearGradient>
    </defs>
    <g id="Symbols" stroke="none" stroke-width="1" fill="none" fill-rule="evenodd">
        <g id="Menu-Global---Desktop-1" transform="translate(-122.000000, -15.000000)">
            <g id="Menu">
                <g id="logo" transform="translate(122.000000, 15.000000)">
                    <polygon id="Fill-1" fill="#000000" points="61.9871507 21.7858617 56 21.7858617 56 17 73 17 73 21.7858617 67.0124471 21.7858617 67.0124471 42 61.9871507 42"></polygon>
                    <g id="Group-41">
                        <path d="M81.9418818,31.2837914 C81.9418818,28.7881343 81.2014207,27.4301057 79.3134957,27.4301057 C77.4255706,27.4301057 76.5371844,28.89792 76.3520692,31.2837914 L81.9418818,31.2837914 Z M71.391147,32.6786914 C71.391147,26.9893057 74.278611,23.3924771 79.2395331,23.3924771 C84.3111902,23.3924771 87.0875014,27.4301057 86.4953833,34.5504343 L76.5371844,34.5504343 C76.9441873,37.11942 78.499072,38.1472629 81.0534957,38.1472629 C82.5344179,38.1472629 83.9409597,37.9637343 85.4218818,37.3762771 L85.4218818,41.0464343 C83.9781499,41.70722 82.3493026,41.9640771 80.3869971,41.9640771 C74.574879,41.9640771 71.391147,38.4409914 71.391147,32.6786914 Z" id="Fill-2" fill="#000000"></path>
                        <mask id="mask-2" fill="white">
                            <use xlink:href="#path-1"></use>
                        </mask>
                        <g id="Clip-5"></g>
                        <polygon id="Fill-4" fill="#000000" mask="url(#mask-2)" points="88.8916859 41.3780286 93.8521902 41.3780286 93.8521902 14.5849286 88.8916859 14.5849286"></polygon>
                        <path d="M106.611689,31.1747929 C106.611689,28.6791357 105.871228,27.3211071 103.983303,27.3211071 C102.095378,27.3211071 101.206991,28.7889214 101.021876,31.1747929 L106.611689,31.1747929 Z M96.0609539,32.5696929 C96.0609539,26.8803071 98.9484179,23.2834786 103.90934,23.2834786 C108.980997,23.2834786 111.757308,27.3211071 111.16519,34.4414357 L101.206991,34.4414357 C101.613994,37.0104214 103.168879,38.0382643 105.723303,38.0382643 C107.204225,38.0382643 108.610767,37.8547357 110.091689,37.2672786 L110.091689,40.9374357 C108.647957,41.5982214 107.01911,41.8554929 105.056804,41.8554929 C99.2446859,41.8554929 96.0609539,38.3319929 96.0609539,32.5696929 Z" id="Fill-6" fill="#000000" mask="url(#mask-2)"></path>
                        <path d="M118.362622,35.7626343 C118.955159,36.8638057 119.880317,37.5610486 121.064971,37.5610486 C123.175202,37.5610486 123.989625,35.7626343 123.989625,32.5697343 C123.989625,29.37642 123.175202,27.5780057 121.064971,27.5780057 C119.880317,27.5780057 118.955159,28.2752486 118.362622,29.37642 L118.362622,35.7626343 Z M122.509121,41.8555343 C120.510043,41.8555343 119.214236,41.01122 118.362622,40.0567057 L118.362622,49.4527057 L113.402118,49.4527057 L113.402118,23.7607771 L117.844467,23.7607771 L117.844467,25.5591914 C118.65889,24.4211486 120.102622,23.28352 122.397968,23.28352 C127.173357,23.28352 128.913357,27.6144629 128.913357,32.5697343 C128.913357,38.0014343 126.91428,41.8555343 122.509121,41.8555343 Z" id="Fill-7" fill="#000000" mask="url(#mask-2)"></path>
                        <path d="M140.962565,31.1747929 C140.962565,28.6791357 140.222104,27.3211071 138.334179,27.3211071 C136.446254,27.3211071 135.557867,28.7889214 135.372752,31.1747929 L140.962565,31.1747929 Z M130.41183,32.5696929 C130.41183,26.8803071 133.299294,23.2834786 138.260216,23.2834786 C143.331873,23.2834786 146.108602,27.3211071 145.516066,34.4414357 L135.557867,34.4414357 C135.96487,37.0104214 137.519755,38.0382643 140.074179,38.0382643 C141.555101,38.0382643 142.961643,37.8547357 144.442565,37.2672786 L144.442565,40.9374357 C142.998833,41.5982214 141.369986,41.8554929 139.40768,41.8554929 C133.595562,41.8554929 130.41183,38.3319929 130.41183,32.5696929 Z" id="Fill-8" fill="#000000" mask="url(#mask-2)"></path>
                        <path d="M147.508584,23.7607771 L151.950932,23.7607771 L151.950932,26.4399629 C153.024434,24.2011629 155.023512,23.1737343 157.689088,23.39372 L157.689088,28.3854486 C155.31978,28.09172 153.431854,28.9360343 152.469088,31.39482 L152.469088,41.3782771 L147.508584,41.3782771 L147.508584,23.7607771 Z" id="Fill-9" fill="#000000" mask="url(#mask-2)"></path>
                        <path d="M161.813231,28.0182257 L159.480695,28.0182257 L159.480695,23.7606114 L161.813231,23.7606114 L161.813231,21.4484829 C161.813231,16.8606829 164.737885,15.2089257 167.921199,15.2089257 C169.217006,15.2089257 170.142582,15.3924543 171.142121,15.7963829 L171.142121,19.8335971 C170.550003,19.57674 169.846314,19.46654 169.143043,19.46654 C167.736084,19.46654 166.773735,20.1273257 166.773735,21.6320114 L166.773735,23.7606114 L170.327697,23.7606114 L170.327697,28.0182257 L166.773735,28.0182257 L166.773735,41.3781114 L161.813231,41.3781114 L161.813231,28.0182257 Z" id="Fill-10" fill="#000000" mask="url(#mask-2)"></path>
                        <path d="M176.002128,32.5695271 C176.002128,35.7992986 176.853324,37.5608414 179.000745,37.5608414 C181.110976,37.5608414 181.962171,35.7992986 181.962171,32.5695271 C181.962171,29.3393414 181.110976,27.5413414 179.000745,27.5413414 C176.853324,27.5413414 176.002128,29.3393414 176.002128,32.5695271 M186.960284,32.5695271 C186.960284,38.3686986 184.109592,41.8553271 179.000745,41.8553271 C173.855125,41.8553271 171.004434,38.3686986 171.004434,32.5695271 C171.004434,26.7703557 173.855125,23.2837271 179.000745,23.2837271 C184.109592,23.2837271 186.960284,26.7334843 186.960284,32.5695271" id="Fill-11" fill="#000000" mask="url(#mask-2)"></path>
                        <path d="M188.744494,23.7607771 L193.186843,23.7607771 L193.186843,26.4399629 C194.260344,24.2011629 196.259422,23.1737343 198.924999,23.39372 L198.924999,28.3854486 C196.55569,28.09172 194.667765,28.9360343 193.704999,31.39482 L193.704999,41.3782771 L188.744494,41.3782771 L188.744494,23.7607771 Z" id="Fill-12" fill="#000000" mask="url(#mask-2)"></path>
                        <path d="M224.01915,28.9359514 L224.01915,41.3781943 L219.132608,41.3781943 L219.132608,29.96338 C219.132608,28.5320229 218.46611,27.83478 217.281455,27.83478 C216.244726,27.83478 215.430303,28.4218229 214.800994,29.4127943 L214.800994,41.3781943 L209.951643,41.3781943 L209.951643,29.96338 C209.951643,28.5320229 209.247954,27.83478 208.10049,27.83478 C207.100951,27.83478 206.249337,28.4218229 205.620029,29.4865371 L205.620029,41.3781943 L200.733487,41.3781943 L200.733487,23.7606943 L205.175836,23.7606943 L205.175836,25.4124514 C206.212565,24.0912943 207.730259,23.2834371 209.655375,23.2834371 C211.58049,23.2834371 213.024222,24.0912943 213.875418,25.4124514 C215.171225,23.9077657 216.7633,23.2834371 218.687997,23.2834371 C222.27915,23.2834371 224.01915,25.7795086 224.01915,28.9359514" id="Fill-13" fill="#000000" mask="url(#mask-2)"></path>
                        <path d="M235.74639,37.4875543 L235.74639,34.1111257 C235.117082,33.9640543 234.561736,33.8907257 233.969618,33.8907257 C232.155238,33.8907257 230.933811,34.4781829 230.933811,36.2397257 C230.933811,37.81774 231.896578,38.5149829 233.081232,38.5149829 C234.191506,38.5149829 234.969157,38.1852114 235.74639,37.4875543 M242.33616,37.8546114 L242.33616,41.3047829 C241.595699,41.5247686 240.855238,41.6349686 239.966852,41.6349686 C238.597082,41.6349686 237.338465,41.23104 236.598004,40.27694 C235.265007,41.34124 233.67335,41.8553686 231.822197,41.8553686 C228.786808,41.8553686 226.158004,40.0934114 226.158004,36.3863829 C226.158004,32.6060257 228.934733,30.7342829 232.896117,30.7342829 C233.858465,30.7342829 234.672889,30.8444829 235.74639,31.0648829 L235.74639,30.1103686 C235.74639,28.6790114 235.079892,27.4311829 232.636621,27.4311829 C230.637543,27.4311829 228.749618,27.9080257 227.268696,28.53194 L227.268696,24.3111971 C228.897543,23.7241543 231.081736,23.2833543 233.118004,23.2833543 C238.041736,23.2833543 240.59616,25.44924 240.59616,30.4774257 L240.59616,36.75344 C240.59616,37.6342114 241.040353,37.92794 241.743624,37.92794 C241.928739,37.92794 242.151045,37.8914829 242.33616,37.8546114" id="Fill-14" fill="#000000" mask="url(#mask-2)"></path>
                        <path d="M244.169219,23.7607771 L248.611568,23.7607771 L248.611568,25.4125343 C249.611107,24.2380343 251.092029,23.28352 253.424147,23.28352 C256.237648,23.28352 258.792072,25.2290057 258.792072,28.8991629 L258.792072,41.3782771 L253.83115,41.3782771 L253.83115,29.9634629 C253.83115,28.4587771 253.091107,27.8348629 251.7953,27.8348629 C250.499493,27.8348629 249.611107,28.6791771 249.129723,29.5964057 L249.129723,41.3782771 L244.169219,41.3782771 L244.169219,23.7607771 Z" id="Fill-15" fill="#000000" mask="url(#mask-2)"></path>
                        <path d="M260.861644,32.7161843 C260.861644,26.66057 264.415607,23.2837271 269.302148,23.2837271 C270.820261,23.2837271 271.967725,23.5037129 273.189569,24.09117 L273.189569,28.2385843 C272.263993,27.7613271 271.301226,27.50447 270.0798,27.50447 C267.488186,27.50447 265.859339,29.3762129 265.859339,32.5695271 C265.859339,35.7628414 267.303071,37.5608414 269.857494,37.5608414 C271.375189,37.5608414 272.44869,37.2306557 273.374684,36.8271414 L273.374684,41.0843414 C272.263993,41.59847 270.894223,41.8553271 269.080261,41.8553271 C264.304454,41.8553271 260.861644,38.5886843 260.861644,32.7161843" id="Fill-16" fill="#000000" mask="url(#mask-2)"></path>
                        <path d="M285.245922,31.1747929 C285.245922,28.6791357 284.505461,27.3211071 282.617536,27.3211071 C280.729611,27.3211071 279.841225,28.7889214 279.65611,31.1747929 L285.245922,31.1747929 Z M274.695187,32.5696929 C274.695187,26.8803071 277.582651,23.2834786 282.543573,23.2834786 C287.615231,23.2834786 290.39196,27.3211071 289.799424,34.4414357 L279.841225,34.4414357 C280.248228,37.0104214 281.803112,38.0382643 284.357536,38.0382643 C285.838458,38.0382643 287.245,37.8547357 288.725922,37.2672786 L288.725922,40.9374357 C287.28219,41.5982214 285.653343,41.8554929 283.691037,41.8554929 C277.878919,41.8554929 274.695187,38.3319929 274.695187,32.5696929 Z" id="Fill-17" fill="#000000" mask="url(#mask-2)"></path>
                        <path d="M132.166288,53.2914357 L136.683853,53.2914357 C136.653349,51.4263214 135.990193,50.4022071 134.463723,50.4022071 C132.906331,50.4022071 132.243176,51.4109929 132.166288,53.2914357 Z M137.670856,57.3423214 C137.717239,57.5718357 137.639934,57.69405 137.424314,57.7400357 C136.853507,57.8775786 135.928767,57.9997929 134.957225,57.9997929 C132.351403,57.9997929 131.071476,56.79215 131.071476,53.91825 L131.071476,53.6584929 C131.071476,51.1359071 132.058478,49.5918643 134.432801,49.5918643 C137.485741,49.5918643 137.593968,52.0378071 137.655395,53.4443071 L137.670856,53.64275 C137.670856,53.8722643 137.563046,53.9944786 137.331548,53.9944786 L132.166288,53.9944786 C132.181749,56.28755 133.045063,57.1898643 135.080496,57.1898643 C136.036576,57.1898643 136.807542,57.0519071 137.300625,56.96035 C137.563046,56.9143643 137.624473,57.0825643 137.639934,57.1898643 L137.670856,57.3423214 Z" id="Fill-18" fill="#000000" mask="url(#mask-2)"></path>
                        <path d="M140.138447,55.6302443 C140.138447,56.8229729 140.9863,57.2662586 142.481847,57.2662586 C143.422885,57.2662586 144.116545,57.0823157 144.394009,56.97543 L144.394009,54.3157157 C144.085622,54.1475157 143.283735,53.9184157 142.343115,53.9184157 C140.863029,53.9184157 140.138447,54.4835014 140.138447,55.5233586 L140.138447,55.6302443 Z M144.394009,53.5820157 L144.394009,51.9617443 C144.394009,51.0287729 143.931429,50.4019586 142.420421,50.4019586 C141.618533,50.4019586 140.570104,50.5552443 140.076602,50.6468014 C139.814599,50.6927871 139.783677,50.6314729 139.721833,50.3870443 L139.691329,50.2644157 C139.629484,49.98933 139.737294,49.9131014 139.968793,49.8671157 C140.631948,49.7142443 141.850032,49.5916157 142.651501,49.5916157 C144.717856,49.5916157 145.426977,50.4019586 145.426977,51.9617443 L145.426977,57.1742871 C145.426977,57.4187157 145.381012,57.4953586 145.088086,57.5720014 C144.625507,57.7551157 143.653965,57.9999586 142.420421,57.9999586 C140.508259,57.9999586 139.043634,57.4647014 139.043634,55.67623 L139.043634,55.4620443 C139.043634,54.0099729 140.138447,53.19963 142.096573,53.19963 C142.929383,53.19963 143.653965,53.3371729 144.394009,53.5820157 Z" id="Fill-19" fill="#000000" mask="url(#mask-2)"></path>
                        <path d="M152.813076,50.2493357 C152.782154,50.4631071 152.735771,50.5244214 152.550656,50.5090929 C151.872457,50.43245 151.687341,50.4022071 151.009143,50.4022071 C149.143365,50.4022071 148.356938,51.5638643 148.356938,53.6734071 L148.356938,53.9335786 C148.356938,56.0891071 149.18933,57.1898643 151.08603,57.1898643 C151.733725,57.1898643 152.196304,57.12855 152.597039,57.0672357 C152.797615,57.0365786 152.82812,57.2354357 152.843581,57.3423214 L152.874503,57.52585 C152.905425,57.7400357 152.82812,57.80135 152.6125,57.8315929 C151.949762,57.9388929 151.363494,57.9997929 150.885454,57.9997929 C148.326016,57.9997929 147.262125,56.5932929 147.262125,53.9029214 L147.262125,53.6734071 C147.262125,51.0596786 148.356938,49.5918643 150.808566,49.5918643 C151.564071,49.5918643 151.964805,49.63785 152.597039,49.7447357 C152.782154,49.7753929 152.889964,49.8367071 152.859042,50.0658071 L152.813076,50.2493357 Z" id="Fill-20" fill="#000000" mask="url(#mask-2)"></path>
                        <path d="M160.923633,57.5106457 C160.923633,57.74016 160.815405,57.8470457 160.599785,57.8470457 L160.245016,57.8470457 C160.013935,57.8470457 159.906125,57.74016 159.906125,57.5106457 L159.906125,52.5425314 C159.906125,51.2889029 159.335318,50.4479029 157.93212,50.4479029 C157.099728,50.4479029 155.989454,50.7383171 155.588301,50.9371743 L155.588301,57.5106457 C155.588301,57.74016 155.480491,57.8470457 155.249411,57.8470457 L154.894641,57.8470457 C154.663561,57.8470457 154.555333,57.74016 154.555333,57.5106457 L154.555333,46.7943171 C154.555333,46.5652171 154.663561,46.4579171 154.894641,46.4579171 L155.249411,46.4579171 C155.480491,46.4579171 155.588301,46.5652171 155.588301,46.7943171 L155.588301,50.0961743 C156.390189,49.8061743 157.361731,49.5919886 158.209584,49.5919886 C160.137206,49.5919886 160.923633,50.7234029 160.923633,52.45056 L160.923633,57.5106457 Z" id="Fill-21" fill="#000000" mask="url(#mask-2)"></path>
                        <path d="M169.003517,57.2967086 C169.034439,57.51048 169.049901,57.6331086 168.803359,57.7093371 C168.525477,57.7855657 168.263474,57.84688 167.970549,57.84688 C167.076313,57.84688 166.551889,57.4802371 166.551889,56.1197229 L166.551889,50.0810943 C166.551889,49.8519943 166.660117,49.7446943 166.875736,49.7446943 L167.230506,49.7446943 C167.461586,49.7446943 167.569396,49.8519943 167.569396,50.0810943 L167.569396,56.1197229 C167.569396,56.7461229 167.754512,57.0365371 168.217091,57.0365371 C168.386745,57.0365371 168.618244,56.9909657 168.772437,56.94498 C168.895707,56.9143229 168.957552,57.0062943 168.988474,57.1898229 L169.003517,57.2967086 Z M166.844814,48.3995086 C166.613733,48.3995086 166.505506,48.2926229 166.505506,48.0631086 L166.505506,47.25318 C166.505506,47.0236657 166.613733,46.91678 166.844814,46.91678 L167.291932,46.91678 C167.50797,46.91678 167.61578,47.0236657 167.61578,47.25318 L167.61578,48.0631086 C167.61578,48.2926229 167.50797,48.3995086 167.291932,48.3995086 L166.844814,48.3995086 Z" id="Fill-22" fill="#000000" mask="url(#mask-2)"></path>
                        <path d="M176.543684,57.5106457 C176.543684,57.74016 176.435457,57.8470457 176.219837,57.8470457 L175.865068,57.8470457 C175.633987,57.8470457 175.525759,57.74016 175.525759,57.5106457 L175.525759,52.5425314 C175.525759,51.2889029 174.95537,50.4479029 173.552171,50.4479029 C172.71978,50.4479029 171.609506,50.7383171 171.208353,50.9371743 L171.208353,57.5106457 C171.208353,57.74016 171.100543,57.8470457 170.869463,57.8470457 L170.514693,57.8470457 C170.283612,57.8470457 170.175385,57.74016 170.175385,57.5106457 L170.175385,50.70766 C170.175385,50.47856 170.283612,50.3256886 170.499232,50.2188029 C171.131465,49.9279743 172.426854,49.5919886 173.629477,49.5919886 C175.695414,49.5919886 176.543684,50.70766 176.543684,52.4199029 L176.543684,57.5106457 Z" id="Fill-23" fill="#000000" mask="url(#mask-2)"></path>
                        <path d="M178.780069,50.5550786 L178.224723,50.5550786 C177.993643,50.5550786 177.885833,50.4481929 177.885833,50.2186786 L177.885833,50.0811357 C177.885833,49.8520357 177.993643,49.7447357 178.224723,49.7447357 L178.780069,49.7447357 L178.780069,48.3382357 C178.780069,48.1091357 178.887879,48.0018357 179.119378,48.0018357 L179.473729,48.0018357 C179.705228,48.0018357 179.813037,48.1091357 179.813037,48.3382357 L179.813037,49.7447357 L181.277663,49.7447357 C181.524622,49.7447357 181.616971,49.8520357 181.616971,50.0811357 L181.616971,50.2186786 C181.616971,50.4481929 181.524622,50.5550786 181.277663,50.5550786 L179.813037,50.5550786 L179.813037,55.7676214 C179.813037,56.5170643 180.059997,57.0365786 180.876928,57.0365786 C181.077504,57.0365786 181.370429,57.0063357 181.663354,56.9296929 C181.802086,56.9143643 181.894853,57.0365786 181.894853,57.2507643 L181.894853,57.4036357 C181.894853,57.63315 181.879392,57.69405 181.632432,57.7247071 C181.339507,57.8162643 181.062043,57.8469214 180.769118,57.8469214 C179.350458,57.8469214 178.780069,57.1438786 178.780069,55.7676214 L178.780069,50.5550786 Z" id="Fill-24" fill="#000000" mask="url(#mask-2)"></path>
                        <path d="M183.853272,53.2914357 L188.371255,53.2914357 C188.340333,51.4263214 187.677177,50.4022071 186.150707,50.4022071 C184.593316,50.4022071 183.93016,51.4109929 183.853272,53.2914357 Z M189.35784,57.3423214 C189.404223,57.5718357 189.326918,57.69405 189.111298,57.7400357 C188.540491,57.8775786 187.615751,57.9997929 186.644209,57.9997929 C184.038388,57.9997929 182.75846,56.79215 182.75846,53.91825 L182.75846,53.6584929 C182.75846,51.1359071 183.745463,49.5918643 186.119785,49.5918643 C189.172725,49.5918643 189.280952,52.0378071 189.342379,53.4443071 L189.35784,53.64275 C189.35784,53.8722643 189.25003,53.9944786 189.018532,53.9944786 L183.853272,53.9944786 C183.868733,56.28755 184.732048,57.1898643 186.76748,57.1898643 C187.723561,57.1898643 188.494526,57.0519071 188.98761,56.96035 C189.25003,56.9143643 189.311457,57.0825643 189.326918,57.1898643 L189.35784,57.3423214 Z" id="Fill-25" fill="#000000" mask="url(#mask-2)"></path>
                        <path d="M195.510228,50.2187614 C195.463844,50.4938471 195.432922,50.5394186 195.217303,50.5245043 C194.862533,50.4482757 194.446337,50.4325329 194.045602,50.4325329 C193.53664,50.4325329 192.765674,50.5394186 192.287634,50.7540186 L192.287634,57.5106043 C192.287634,57.7401186 192.179824,57.8470043 191.948326,57.8470043 L191.593556,57.8470043 C191.362476,57.8470043 191.254666,57.7401186 191.254666,57.5106043 L191.254666,50.4018757 C191.254666,50.2187614 191.331553,50.0812186 191.578513,50.00499 C192.318556,49.6835043 193.135487,49.5919471 193.968297,49.5919471 C194.569608,49.5919471 194.970343,49.6379329 195.340573,49.7141614 C195.587115,49.7601471 195.571654,49.8823614 195.525689,50.12679 L195.510228,50.2187614 Z" id="Fill-26" fill="#000000" mask="url(#mask-2)"></path>
                        <path d="M197.314579,55.6302443 C197.314579,56.8229729 198.162432,57.2662586 199.65798,57.2662586 C200.599017,57.2662586 201.292677,57.0823157 201.570141,56.97543 L201.570141,54.3157157 C201.261755,54.1475157 200.459867,53.9184157 199.519248,53.9184157 C198.039161,53.9184157 197.314579,54.4835014 197.314579,55.5233586 L197.314579,55.6302443 Z M201.570141,53.5820157 L201.570141,51.9617443 C201.570141,51.0287729 201.107562,50.4019586 199.596553,50.4019586 C198.794666,50.4019586 197.746236,50.5552443 197.252735,50.6468014 C196.990732,50.6927871 196.95981,50.6314729 196.897965,50.3870443 L196.867461,50.2644157 C196.805617,49.98933 196.913427,49.9131014 197.144925,49.8671157 C197.808081,49.7142443 199.026164,49.5916157 199.827634,49.5916157 C201.893988,49.5916157 202.60311,50.4019586 202.60311,51.9617443 L202.60311,57.1742871 C202.60311,57.4187157 202.557144,57.4953586 202.264219,57.5720014 C201.80164,57.7551157 200.830098,57.9999586 199.596553,57.9999586 C197.684392,57.9999586 196.219767,57.4647014 196.219767,55.67623 L196.219767,55.4620443 C196.219767,54.0099729 197.314579,53.19963 199.272706,53.19963 C200.105516,53.19963 200.830098,53.3371729 201.570141,53.5820157 Z" id="Fill-27" fill="#000000" mask="url(#mask-2)"></path>
                        <path d="M209.989209,50.2493357 C209.958287,50.4631071 209.911903,50.5244214 209.726788,50.5090929 C209.048589,50.43245 208.863474,50.4022071 208.185275,50.4022071 C206.319497,50.4022071 205.533071,51.5638643 205.533071,53.6734071 L205.533071,53.9335786 C205.533071,56.0891071 206.365463,57.1898643 208.262163,57.1898643 C208.909857,57.1898643 209.372437,57.12855 209.773171,57.0672357 C209.973748,57.0365786 210.004252,57.2354357 210.019713,57.3423214 L210.050635,57.52585 C210.081558,57.7400357 210.004252,57.80135 209.788633,57.8315929 C209.125895,57.9388929 208.539627,57.9997929 208.061586,57.9997929 C205.502148,57.9997929 204.438258,56.5932929 204.438258,53.9029214 L204.438258,53.6734071 C204.438258,51.0596786 205.533071,49.5918643 207.984699,49.5918643 C208.740203,49.5918643 209.140938,49.63785 209.773171,49.7447357 C209.958287,49.7753929 210.066097,49.8367071 210.035174,50.0658071 L209.989209,50.2493357 Z" id="Fill-28" fill="#000000" mask="url(#mask-2)"></path>
                        <path d="M211.885867,50.5550786 L211.330939,50.5550786 C211.099441,50.5550786 210.991631,50.4481929 210.991631,50.2186786 L210.991631,50.0811357 C210.991631,49.8520357 211.099441,49.7447357 211.330939,49.7447357 L211.885867,49.7447357 L211.885867,48.3382357 C211.885867,48.1091357 211.993677,48.0018357 212.225176,48.0018357 L212.579527,48.0018357 C212.811026,48.0018357 212.918836,48.1091357 212.918836,48.3382357 L212.918836,49.7447357 L214.383461,49.7447357 C214.630421,49.7447357 214.722769,49.8520357 214.722769,50.0811357 L214.722769,50.2186786 C214.722769,50.4481929 214.630421,50.5550786 214.383461,50.5550786 L212.918836,50.5550786 L212.918836,55.7676214 C212.918836,56.5170643 213.165795,57.0365786 213.982726,57.0365786 C214.183303,57.0365786 214.476228,57.0063357 214.769153,56.9296929 C214.907885,56.9143643 215.000651,57.0365786 215.000651,57.2507643 L215.000651,57.4036357 C215.000651,57.63315 214.98519,57.69405 214.738231,57.7247071 C214.445305,57.8162643 214.167841,57.8469214 213.874916,57.8469214 C212.456256,57.8469214 211.885867,57.1438786 211.885867,55.7676214 L211.885867,50.5550786 Z" id="Fill-29" fill="#000000" mask="url(#mask-2)"></path>
                        <path d="M218.716496,57.2967086 C218.747418,57.51048 218.762879,57.6331086 218.516337,57.7093371 C218.238455,57.7855657 217.976452,57.84688 217.683527,57.84688 C216.789291,57.84688 216.264867,57.4802371 216.264867,56.1197229 L216.264867,50.0810943 C216.264867,49.8519943 216.373095,49.7446943 216.588715,49.7446943 L216.943484,49.7446943 C217.174565,49.7446943 217.282375,49.8519943 217.282375,50.0810943 L217.282375,56.1197229 C217.282375,56.7461229 217.46749,57.0365371 217.930069,57.0365371 C218.099723,57.0365371 218.331222,56.9909657 218.485415,56.94498 C218.608686,56.9143229 218.67053,57.0062943 218.701452,57.1898229 L218.716496,57.2967086 Z M216.557793,48.3995086 C216.326712,48.3995086 216.218902,48.2926229 216.218902,48.0631086 L216.218902,47.25318 C216.218902,47.0236657 216.326712,46.91678 216.557793,46.91678 L217.004911,46.91678 C217.220948,46.91678 217.328758,47.0236657 217.328758,47.25318 L217.328758,48.0631086 C217.328758,48.2926229 217.220948,48.3995086 217.004911,48.3995086 L216.557793,48.3995086 Z" id="Fill-30" fill="#000000" mask="url(#mask-2)"></path>
                        <path d="M225.547667,53.6583686 C225.547667,51.5948114 224.730318,50.4020829 223.065535,50.4020829 C221.384454,50.4020829 220.582566,51.5948114 220.582566,53.6583686 L220.582566,53.91854 C220.582566,55.9361114 221.384454,57.18974 223.065535,57.18974 C224.730318,57.18974 225.547667,55.9361114 225.547667,53.91854 L225.547667,53.6583686 Z M219.487754,53.6583686 C219.487754,51.0902114 220.690794,49.59174 223.065535,49.59174 C225.439857,49.59174 226.64248,51.0902114 226.64248,53.6583686 L226.64248,53.91854 C226.64248,56.4709543 225.439857,58.0000829 223.065535,58.0000829 C220.690794,58.0000829 219.487754,56.4709543 219.487754,53.91854 L219.487754,53.6583686 Z" id="Fill-31" fill="#000000" mask="url(#mask-2)"></path>
                        <path d="M234.845719,57.5106457 C234.845719,57.74016 234.737491,57.8470457 234.521872,57.8470457 L234.167102,57.8470457 C233.936022,57.8470457 233.828212,57.74016 233.828212,57.5106457 L233.828212,52.5425314 C233.828212,51.2889029 233.257405,50.4479029 231.854206,50.4479029 C231.021814,50.4479029 229.91154,50.7383171 229.510805,50.9371743 L229.510805,57.5106457 C229.510805,57.74016 229.402578,57.8470457 229.171497,57.8470457 L228.816728,57.8470457 C228.585647,57.8470457 228.477837,57.74016 228.477837,57.5106457 L228.477837,50.70766 C228.477837,50.47856 228.585647,50.3256886 228.801267,50.2188029 C229.4335,49.9279743 230.728889,49.5919886 231.931512,49.5919886 C233.997448,49.5919886 234.845719,50.70766 234.845719,52.4199029 L234.845719,57.5106457 Z" id="Fill-32" fill="#000000" mask="url(#mask-2)"></path>
                        <path d="M251.575878,57.5106457 C251.575878,57.74016 251.468068,57.8470457 251.236569,57.8470457 L250.8818,57.8470457 C250.650719,57.8470457 250.542909,57.74016 250.542909,57.5106457 L250.542909,52.6494171 C250.542909,51.3344743 250.003024,50.4479029 248.615287,50.4479029 C247.875244,50.4479029 246.903702,50.8609457 246.518428,51.15136 L246.518428,57.5106457 C246.518428,57.74016 246.425661,57.8470457 246.194581,57.8470457 L245.82435,57.8470457 C245.593269,57.8470457 245.485042,57.74016 245.485042,57.5106457 L245.485042,51.7475171 C245.485042,50.9678314 244.945575,50.4479029 243.542376,50.4479029 C242.833255,50.4479029 241.846252,50.7383171 241.476022,50.9371743 L241.476022,57.5106457 C241.476022,57.74016 241.368212,57.8470457 241.137131,57.8470457 L240.782362,57.8470457 C240.551281,57.8470457 240.443053,57.74016 240.443053,57.5106457 L240.443053,50.70766 C240.443053,50.47856 240.53582,50.3256886 240.766901,50.24946 C241.368212,49.9437171 242.524869,49.5919886 243.634725,49.5919886 C244.775921,49.5919886 245.546886,49.8517457 245.994004,50.31036 C246.76497,49.91306 247.797938,49.5919886 248.692174,49.5919886 C250.727607,49.5919886 251.575878,50.7689743 251.575878,52.5731886 L251.575878,57.5106457 Z" id="Fill-33" fill="#000000" mask="url(#mask-2)"></path>
                        <path d="M254.351646,55.6302443 C254.351646,56.8229729 255.199499,57.2662586 256.695046,57.2662586 C257.636084,57.2662586 258.329744,57.0823157 258.607207,56.97543 L258.607207,54.3157157 C258.298821,54.1475157 257.496934,53.9184157 256.556314,53.9184157 C255.076228,53.9184157 254.351646,54.4835014 254.351646,55.5233586 L254.351646,55.6302443 Z M258.607207,53.5820157 L258.607207,51.9617443 C258.607207,51.0287729 258.144628,50.4019586 256.63362,50.4019586 C255.831732,50.4019586 254.783303,50.5552443 254.289801,50.6468014 C254.027798,50.6927871 253.996876,50.6314729 253.935032,50.3870443 L253.904527,50.2644157 C253.842683,49.98933 253.950493,49.9131014 254.181991,49.8671157 C254.845147,49.7142443 256.063231,49.5916157 256.8647,49.5916157 C258.931055,49.5916157 259.640176,50.4019586 259.640176,51.9617443 L259.640176,57.1742871 C259.640176,57.4187157 259.59421,57.4953586 259.301285,57.5720014 C258.838706,57.7551157 257.867164,57.9999586 256.63362,57.9999586 C254.721458,57.9999586 253.256833,57.4647014 253.256833,55.67623 L253.256833,55.4620443 C253.256833,54.0099729 254.351646,53.19963 256.309772,53.19963 C257.142582,53.19963 257.867164,53.3371729 258.607207,53.5820157 Z" id="Fill-34" fill="#000000" mask="url(#mask-2)"></path>
                        <path d="M261.922484,50.5550786 L261.367556,50.5550786 C261.136058,50.5550786 261.028248,50.4481929 261.028248,50.2186786 L261.028248,50.0811357 C261.028248,49.8520357 261.136058,49.7447357 261.367556,49.7447357 L261.922484,49.7447357 L261.922484,48.3382357 C261.922484,48.1091357 262.030294,48.0018357 262.261793,48.0018357 L262.616144,48.0018357 C262.847643,48.0018357 262.955452,48.1091357 262.955452,48.3382357 L262.955452,49.7447357 L264.420078,49.7447357 C264.667037,49.7447357 264.759386,49.8520357 264.759386,50.0811357 L264.759386,50.2186786 C264.759386,50.4481929 264.667037,50.5550786 264.420078,50.5550786 L262.955452,50.5550786 L262.955452,55.7676214 C262.955452,56.5170643 263.202412,57.0365786 264.019343,57.0365786 C264.219919,57.0365786 264.512844,57.0063357 264.805769,56.9296929 C264.944501,56.9143643 265.037268,57.0365786 265.037268,57.2507643 L265.037268,57.4036357 C265.037268,57.63315 265.021807,57.69405 264.774847,57.7247071 C264.481922,57.8162643 264.204458,57.8469214 263.911533,57.8469214 C262.492873,57.8469214 261.922484,57.1438786 261.922484,55.7676214 L261.922484,50.5550786 Z" id="Fill-35" fill="#000000" mask="url(#mask-2)"></path>
                        <path d="M266.424964,50.5550786 L265.870036,50.5550786 C265.638537,50.5550786 265.530728,50.4481929 265.530728,50.2186786 L265.530728,50.0811357 C265.530728,49.8520357 265.638537,49.7447357 265.870036,49.7447357 L266.424964,49.7447357 L266.424964,48.3382357 C266.424964,48.1091357 266.532774,48.0018357 266.764272,48.0018357 L267.118624,48.0018357 C267.350122,48.0018357 267.457932,48.1091357 267.457932,48.3382357 L267.457932,49.7447357 L268.922558,49.7447357 C269.169517,49.7447357 269.261866,49.8520357 269.261866,50.0811357 L269.261866,50.2186786 C269.261866,50.4481929 269.169517,50.5550786 268.922558,50.5550786 L267.457932,50.5550786 L267.457932,55.7676214 C267.457932,56.5170643 267.704892,57.0365786 268.521823,57.0365786 C268.722399,57.0365786 269.015324,57.0063357 269.308249,56.9296929 C269.446981,56.9143643 269.539748,57.0365786 269.539748,57.2507643 L269.539748,57.4036357 C269.539748,57.63315 269.524287,57.69405 269.277327,57.7247071 C268.984402,57.8162643 268.706938,57.8469214 268.414013,57.8469214 C266.995353,57.8469214 266.424964,57.1438786 266.424964,55.7676214 L266.424964,50.5550786 Z" id="Fill-36" fill="#000000" mask="url(#mask-2)"></path>
                        <path d="M271.498209,53.2914357 L276.015774,53.2914357 C275.985269,51.4263214 275.322114,50.4022071 273.795644,50.4022071 C272.238252,50.4022071 271.575097,51.4109929 271.498209,53.2914357 Z M277.002777,57.3423214 C277.04916,57.5718357 276.971854,57.69405 276.756235,57.7400357 C276.185428,57.8775786 275.260269,57.9997929 274.289146,57.9997929 C271.683324,57.9997929 270.403396,56.79215 270.403396,53.91825 L270.403396,53.6584929 C270.403396,51.1359071 271.389981,49.5918643 273.764722,49.5918643 C276.817661,49.5918643 276.925889,52.0378071 276.987316,53.4443071 L277.002777,53.64275 C277.002777,53.8722643 276.894967,53.9944786 276.663468,53.9944786 L271.498209,53.9944786 C271.51367,56.28755 272.376984,57.1898643 274.412416,57.1898643 C275.368497,57.1898643 276.139045,57.0519071 276.632546,56.96035 C276.894967,56.9143643 276.956393,57.0825643 276.971854,57.1898643 L277.002777,57.3423214 Z" id="Fill-37" fill="#000000" mask="url(#mask-2)"></path>
                        <path d="M283.15529,50.2187614 C283.108906,50.4938471 283.077984,50.5394186 282.862365,50.5245043 C282.507595,50.4482757 282.091399,50.4325329 281.690664,50.4325329 C281.181702,50.4325329 280.410736,50.5394186 279.932696,50.7540186 L279.932696,57.5106043 C279.932696,57.7401186 279.824886,57.8470043 279.593388,57.8470043 L279.238618,57.8470043 C279.007537,57.8470043 278.899728,57.7401186 278.899728,57.5106043 L278.899728,50.4018757 C278.899728,50.2187614 278.976615,50.0812186 279.223575,50.00499 C279.963618,49.6835043 280.780549,49.5919471 281.613359,49.5919471 C282.21467,49.5919471 282.615405,49.6379329 282.985635,49.7141614 C283.232177,49.7601471 283.216716,49.8823614 283.170751,50.12679 L283.15529,50.2187614 Z" id="Fill-38" fill="#000000" mask="url(#mask-2)"></path>
                        <path d="M289.585308,50.2799514 C289.554386,50.6006086 289.477499,50.6163514 289.276922,50.5856943 C288.875769,50.5090514 288.475035,50.4021657 287.442066,50.4021657 C286.239444,50.4021657 285.267902,50.6006086 285.267902,51.5484943 C285.267902,53.6124657 289.878233,52.2826086 289.878233,55.6606943 C289.878233,57.2047371 288.737037,58.0001657 286.76345,58.0001657 C285.900135,58.0001657 284.944055,57.8622086 284.435092,57.7855657 C284.157628,57.7553229 284.111245,57.6940086 284.111245,57.4189229 L284.111245,57.3120371 C284.111245,56.9909657 284.250395,56.94498 284.481476,56.9756371 C284.851706,57.0365371 285.776865,57.1898229 286.671101,57.1898229 C288.398147,57.1898229 288.829804,56.5170229 288.829804,55.6913514 C288.829804,52.9703229 284.234934,54.4223943 284.234934,51.5484943 C284.234934,49.9128943 285.622671,49.5918229 287.272412,49.5918229 C288.475035,49.5918229 289.153651,49.7293657 289.354228,49.7753514 C289.569847,49.8060086 289.647153,49.8669086 289.616231,50.1573229 L289.585308,50.2799514 Z" id="Fill-39" fill="#000000" mask="url(#mask-2)"></path>
                        <path d="M30.446072,0.0462342857 L1.74359366,0.0462342857 C0.780827089,0.0462342857 -0.000167146974,0.82012 -0.000167146974,1.77504857 L-0.000167146974,10.2554771 C-0.000167146974,10.9639057 0.138564841,11.3541629 0.474112392,11.6868343 C2.92991931,14.1215914 7.93889625,19.08722 10.3955389,21.5228057 C10.5526571,21.6785771 10.7837378,21.5808057 10.7837378,21.3827771 L10.7837378,11.3458771 C10.7837378,11.1333486 10.6099049,10.9605914 10.395121,10.9605914 L2.55007781,10.9605914 C2.03986167,10.9605914 1.62617291,10.5504486 1.62617291,10.0446057 L1.62617291,2.57130571 C1.62617291,2.06546286 2.03986167,1.65532 2.55007781,1.65532 L28.8602651,1.65532 C29.3708991,1.65532 29.7845879,2.06546286 29.7845879,2.57130571 L29.7845879,10.0454343 C29.7845879,10.5508629 29.3708991,10.9605914 28.8611009,10.9605914 L21.0168934,10.9605914 C20.8016916,10.9605914 20.6274409,11.1333486 20.6274409,11.3467057 L20.6274409,40.4589771 C20.6274409,40.9644057 20.21417,41.3741343 19.7043718,41.3741343 L11.9040403,41.3741343 C11.6992853,41.3741343 11.5622248,41.6268486 11.7072248,41.7701914 C13.415049,43.4621343 16.8511729,46.8700486 18.5961873,48.6001057 C19.0650346,49.0649343 19.6730317,49.4527057 20.4577867,49.4527057 L27.9505677,49.4527057 C28.6601066,49.4527057 29.2350922,48.8826486 29.2350922,48.1791914 L29.2350922,30.83802 C29.2350922,30.6246629 29.4093429,30.4519057 29.6241268,30.4519057 L30.446072,30.4519057 C38.865683,30.4519057 47.0412594,25.35992 47.0412594,15.1904486 C47.0412594,6.13623429 40.7465043,0.0462342857 30.446072,0.0462342857" id="Fill-40" fill="url(#linearGradient-3)" mask="url(#mask-2)"></path>
                    </g>
                </g>
            </g>
        </g>
    </g>
</svg>